<svg xmlns="http://www.w3.org/2000/svg" width="509" height="511" viewBox="0 0 509 511">
  <metadata><?xpacket begin="﻿" id="W5M0MpCehiHzreSzNTczkc9d"?>
<x:xmpmeta xmlns:x="adobe:ns:meta/" x:xmptk="Adobe XMP Core 5.6-c138 79.159824, 2016/09/14-01:09:01        ">
   <rdf:RDF xmlns:rdf="../../../../external.html?link=http://www.w3.org/1999/02/22-rdf-syntax-ns#">
      <rdf:Description rdf:about=""/>
   </rdf:RDF>
</x:xmpmeta>
                                                                                                    
                                                                                                    
                                                                                                    
                                                                                                    
                                                                                                    
                                                                                                    
                                                                                                    
                                                                                                    
                                                                                                    
                                                                                                    
                                                                                                    
                                                                                                    
                                                                                                    
                                                                                                    
                                                                                                    
                                                                                                    
                                                                                                    
                                                                                                    
                                                                                                    
                                                                                                    
                           
<?xpacket end="w"?></metadata>
<defs>
    <style>
      .cls-1 {
        fill: none;
        stroke: #d5ccff;
        stroke-width: 20px;
      }

      .cls-2 {
        fill: #d5ccff;
        fill-rule: evenodd;
      }
    </style>
  </defs>
  <rect id="Rounded_Rectangle_1" data-name="Rounded Rectangle 1" class="cls-1" x="10" y="69" width="489" height="373" rx="60" ry="60"/>
  <path class="cls-2" d="M119,191l106.49,106.578a41.076,41.076,0,0,0,58.782,0L390.765,191h28.193L297.426,312.531a60,60,0,0,1-84.852,0L91.042,191H119Z"/>
  <path class="cls-2" d="M90.974,191l-9.645-9.645c-4.882-4.882-5.676-12-1.774-15.9s11.022-3.108,15.9,1.774L119.232,191H90.974Z"/>
  <path id="Rectangle_3_copy" data-name="Rectangle 3 copy" class="cls-2" d="M194.888,281.782L97.307,379.363a10,10,0,1,1-14.142-14.142l97.581-97.581Zm118.1-.586,97.9,97.846a10.03,10.03,0,0,0,14.189-14.18l-97.9-97.847Z"/>
  <path id="Rectangle_2_copy" data-name="Rectangle 2 copy" class="cls-2" d="M419.026,191.025H390.768l23.774-23.769c4.881-4.88,12-5.675,15.9-1.774s3.108,11.02-1.774,15.9Z"/>
</svg>
