<svg xmlns="http://www.w3.org/2000/svg" width="520" height="517" viewBox="0 0 520 517">
  <metadata><?xpacket begin="﻿" id="W5M0MpCehiHzreSzNTczkc9d"?>
<x:xmpmeta xmlns:x="adobe:ns:meta/" x:xmptk="Adobe XMP Core 5.6-c138 79.159824, 2016/09/14-01:09:01        ">
   <rdf:RDF xmlns:rdf="../../../../external.html?link=http://www.w3.org/1999/02/22-rdf-syntax-ns#">
      <rdf:Description rdf:about=""/>
   </rdf:RDF>
</x:xmpmeta>
                                                                                                    
                                                                                                    
                                                                                                    
                                                                                                    
                                                                                                    
                                                                                                    
                                                                                                    
                                                                                                    
                                                                                                    
                                                                                                    
                                                                                                    
                                                                                                    
                                                                                                    
                                                                                                    
                                                                                                    
                                                                                                    
                                                                                                    
                                                                                                    
                                                                                                    
                                                                                                    
                           
<?xpacket end="w"?></metadata>
<defs>
    <style>
      .cls-1 {
        fill: #c1ffff;
      }

      .cls-1, .cls-2 {
        fill-rule: evenodd;
      }

      .cls-2 {
        fill: none;
        stroke: #c1ffff;
        stroke-width: 20px;
      }
    </style>
  </defs>
  <path id="Ellipse_2_copy_3" data-name="Ellipse 2 copy 3" class="cls-1" d="M260,242a23,23,0,1,1-23,23A23,23,0,0,1,260,242Zm74,0a23,23,0,1,1-23,23A23,23,0,0,1,334,242Zm-148,0a23,23,0,1,1-23,23A23,23,0,0,1,186,242Z"/>
  <path class="cls-2" d="M260,486c-56.126,0-107.931-16.831-149.654-45.249C42.217,476.818-4.219,455.121,19,438c16.473-12.147,26.566-31.241,35.087-50.476C26.291,350.858,10,306.414,10,258.5,10,132.855,121.929,31,260,31S510,132.855,510,258.5,398.071,486,260,486Z"/>
</svg>
