<svg xmlns="http://www.w3.org/2000/svg" width="500" height="600" viewBox="0 0 500 600">
  <metadata><?xpacket begin="﻿" id="W5M0MpCehiHzreSzNTczkc9d"?>
<x:xmpmeta xmlns:x="adobe:ns:meta/" x:xmptk="Adobe XMP Core 5.6-c138 79.159824, 2016/09/14-01:09:01        ">
   <rdf:RDF xmlns:rdf="../../../../external.html?link=http://www.w3.org/1999/02/22-rdf-syntax-ns#">
      <rdf:Description rdf:about=""/>
   </rdf:RDF>
</x:xmpmeta>
                                                                                                    
                                                                                                    
                                                                                                    
                                                                                                    
                                                                                                    
                                                                                                    
                                                                                                    
                                                                                                    
                                                                                                    
                                                                                                    
                                                                                                    
                                                                                                    
                                                                                                    
                                                                                                    
                                                                                                    
                                                                                                    
                                                                                                    
                                                                                                    
                                                                                                    
                                                                                                    
                           
<?xpacket end="w"?></metadata>
<defs>
    <style>
      .cls-1 {
        fill: none;
        stroke: #b2deff;
        stroke-width: 23.99px;
      }

      .cls-1, .cls-2 {
        fill-rule: evenodd;
      }

      .cls-2 {
        fill: #b2deff;
      }
    </style>
  </defs>
  <path id="Color_Fill_1" data-name="Color Fill 1" class="cls-1" d="M190.125,170.248L110.705,52.893s22.067-34.711,61.22-34.711,51.917,29.752,77.765,29.752,41.809-35.8,89.347-34.711c27.765,0.638,46.328,29.752,46.328,29.752L314.218,170.248H190.125Z"/>
  <path id="Color_Fill_1_copy" data-name="Color Fill 1 copy" class="cls-1" d="M409.356,586.936C302.161,586.936,193.852,587,91,587c-190.538-83.311,14.069-366.92,94.052-416.583,58.218,0,72.736-.052,129.967-0.052C395.053,219.973,600.013,503.717,409.356,586.936Z"/>
  <path id="_" data-name="$" class="cls-2" d="M237.681,525.99h19.712V492.835q24.252-4.161,37.936-18.874t13.686-34.232q0-23.682-10.211-38.824t-32.334-25.62l-13.047-6.171q-16.028-7.752-21.556-12.344a30.818,30.818,0,0,1-8.509-11.195,35.182,35.182,0,0,1-2.979-14.64q0-13.059,8.3-21.386t22.761-8.324a68.508,68.508,0,0,1,21.556,3.875q11.627,3.874,17.3,8.038l8.367-24.974q-10.779-9.9-41.269-11.2V255.009H237.681v22.964q-20.847,3.876-33.256,18.659a52.342,52.342,0,0,0-12.409,34.734q0,19.376,8.438,33.155t29.711,23.825L246.9,396.24q17.87,8.471,22.9,12.7a28.927,28.927,0,0,1,7.942,11.123,40.326,40.326,0,0,1,2.907,15.788q0,14.209-10.069,23.4t-26.661,9.186q-9.5,0-21.627-4.162t-19.5-9.617l-10.211,26.409q5.532,3.735,20.422,8.182t24.676,5.023v31.72Z"/>
</svg>
