<svg xmlns="http://www.w3.org/2000/svg" width="480" height="482" viewBox="0 0 480 482">
  <metadata><?xpacket begin="﻿" id="W5M0MpCehiHzreSzNTczkc9d"?>
<x:xmpmeta xmlns:x="adobe:ns:meta/" x:xmptk="Adobe XMP Core 5.6-c138 79.159824, 2016/09/14-01:09:01        ">
   <rdf:RDF xmlns:rdf="../../../../external.html?link=http://www.w3.org/1999/02/22-rdf-syntax-ns#">
      <rdf:Description rdf:about=""/>
   </rdf:RDF>
</x:xmpmeta>
                                                                                                    
                                                                                                    
                                                                                                    
                                                                                                    
                                                                                                    
                                                                                                    
                                                                                                    
                                                                                                    
                                                                                                    
                                                                                                    
                                                                                                    
                                                                                                    
                                                                                                    
                                                                                                    
                                                                                                    
                                                                                                    
                                                                                                    
                                                                                                    
                                                                                                    
                                                                                                    
                           
<?xpacket end="w"?></metadata>
<defs>
    <style>
      .cls-1 {
        fill: #c1ffff;
      }

      .cls-1, .cls-2 {
        fill-rule: evenodd;
      }

      .cls-2 {
        fill: none;
        stroke: #c1ffff;
        stroke-width: 20px;
      }
    </style>
  </defs>
  <path id="Rounded_Rectangle_1" data-name="Rounded Rectangle 1" class="cls-1" d="M240.5,314A11.5,11.5,0,1,1,229,325.5,11.5,11.5,0,0,1,240.5,314Zm-0.494,16c2.853,0,5.282,1.982,5.433,4.552l3.528,60.211c0.443,7.548-3.551,14.237-8.961,14.237s-9.4-6.689-8.961-14.237l3.529-60.211C234.724,331.982,237.153,330,240.006,330Z"/>
  <path id="Color_Fill_1_copy" data-name="Color Fill 1 copy" class="cls-2" d="M240.5,472H240c-240.041-.055-229.744-39.84-229-52s1.339-16.481,4-39c6.949-58.8,43.751-58.2,133-75,11.718-2.206,15.158,8.574,17,17,20.658,94.515,61,101.045,75,101.045h0.5c13.335,0,53.5-6.53,75.082-101.045,1.92-8.409,5.288-19.206,17.019-17,89.346,16.8,126.188,16.2,133.144,75,2.664,22.519,3.259,26.832,4,39S480.8,471.944,240.5,472Zm0-199.011V273c-0.083,0-.167-0.006-0.25-0.006S240.083,273,240,273v-0.012C156.2,271.95,67.681,10.516,240,10.006V10c0.084,0,.166,0,0.25,0s0.166,0,.25,0v0.006C413.007,10.515,324.394,271.951,240.5,272.988Z"/>
</svg>
